# xmcd
#
# Track frame offsets:
#	150
#	19162
#	34270
#	50412
#	69902
#	81545
#	93750
#	110770
#	125692
#	139782
#	150972
#	168507
#	206755
#
# Disc length: 2965 seconds
#
# Revision: 0
# Processed by: cddbd v1.4PL0 Copyright (c) Steve Scherf et al.
# Submitted via: EasyCDDAExtractor 4.5.2.1
#
DISCID=b00b930d
DTITLE=Sam Rizetta - Saving Trees
DYEAR=1999
DGENRE=Mountain Music
TTITLE0=The Comet
TTITLE1=Augusta at Mignight
TTITLE2=Playing in the Mud
TTITLE3=Patty in the Snowbank
TTITLE4=Heartland Bouquet
TTITLE5=Lilac Time
TTITLE6=Russell Fluharty's Dream
TTITLE7=Dad's Favorite
TTITLE8=Dora's Waltz
TTITLE9=Fire in the Cloud
TTITLE10=Finches in the Snow
TTITLE11=Carrie Saving Trees
TTITLE12=Jay and the Double Deuce
EXTD=Original Compositions for Hammer Dulcimer
EXTT0=
EXTT1=
EXTT2=
EXTT3=
EXTT4=
EXTT5=
EXTT6=
EXTT7=
EXTT8=
EXTT9=\n
EXTT10=
EXTT11=March in the Forest/Sacred Place\n
EXTT12=
PLAYORDER=
